Genre:Drama | Mystery
Language:English  http://www.imdb.com/title/tt1194263/
Source:1080p.BluRay.x264-TWiZTED
Subtitles:Romana


Format : MPEG-4
Format profile : Base Media
Codec ID : isom
File size : 1.75 GiB
Duration : 1h 43mn
Overall bit rate : 2 425 Kbps


Video
Format settings, CABAC : Yes
Format settings, ReFrames : 3 frames
Codec ID : avc1
Codec ID/Info : Advanced Video Coding
Duration : 1h 43mn
Bit rate mode : Variable
Bit rate : 2 000 Kbps
Maximum bit rate : 13.2 Mbps
Width : 1 280 pixels
Height : 536 pixels
Display aspect ratio : 2.35:1
Frame rate mode : Constant
Frame rate : 23.976 fps
Color space : YUV
Chroma subsampling : 4:2:0
Bit depth : 8 bits
Scan type : Progressive
Bits/(Pixel*Frame) : 0.122
Stream size : 1.44 GiB (82%)
Writing library : x264


Audio
ID : 2
Format : AAC
Format/Info : Advanced Audio Codec
Format version : Version 4
Format profile : LC
Format settings, SBR : No
Codec ID : 40
Duration : 1h 43mn
Bit rate mode : Variable
Bit rate : 425 Kbps
Maximum bit rate : 549 Kbps
Channel(s) : 6 channels
Channel positions : Front: L C R, Side: L R, LFE
Sampling rate : 48.0 KHz
Stream size : 314 MiB (18%)


Plot:
A movie spun out of equal parts folk tale, fable and real-life legend about the mysterious, 1930s Tennessee hermit who famously threw his own rollicking funeral party... while he was still alive
 
http://rapidhdd.com/images/419817vlcsnap-00001.png 
http://www.rapidhdd.com/images/632862vlcsnap-00002.png 
http://www.rapidhdd.com/images/867206vlcsnap-00003.png 
http://www.rapidhdd.com/images/694052vlcsnap-00005.png 
http://www.rapidhdd.com/images/661977vlcsnap-00006.png 
http://www.rapidhdd.com/images/630728vlcsnap-00004.png